<svg width="37" height="37" viewBox="0 0 37 37" fill="none" xmlns="http://www.w3.org/2000/svg">
<g clip-path="url(#clip0_11_55)">
<path d="M9.08836 1.38441L26.2154 18.5099L9.08836 35.6353C8.77973 35.9548 8.78863 36.464 9.10812 36.7727C9.41984 37.0737 9.91397 37.0737 10.2256 36.7727L27.9205 19.0777C28.2345 18.7637 28.2345 18.2546 27.9205 17.9404L10.2256 0.24551C9.91698 -0.0739785 9.40785 -0.0828018 9.08829 0.225754C8.7688 0.534382 8.75998 1.04351 9.06853 1.36308C9.07502 1.36979 9.08158 1.37635 9.08829 1.38283L9.08836 1.38441Z" fill="#FFC107"/>
<path d="M28.157 18.5099C28.1574 18.7233 28.0729 18.9282 27.9221 19.0793L10.2272 36.7742C9.90771 37.0829 9.3985 37.074 9.08987 36.7545C8.78886 36.4428 8.78886 35.9486 9.08987 35.637L26.2153 18.5099L9.08829 1.38448C8.7688 1.07586 8.75998 0.566723 9.06853 0.247158C9.37716 -0.0723305 9.88629 -0.0811501 10.2059 0.227405C10.2126 0.23389 10.2191 0.240448 10.2256 0.247158L27.9205 17.942C28.0715 18.0925 28.1565 18.2968 28.157 18.5099Z" fill="white"/>
</g>
<defs>
<clipPath id="clip0_11_55">
<rect width="37" height="37" fill="white" transform="translate(0 37) rotate(-90)"/>
</clipPath>
</defs>
</svg>
