<svg width="4" height="8" viewBox="0 0 4 8" fill="none" xmlns="http://www.w3.org/2000/svg">
<path fill-rule="evenodd" clip-rule="evenodd" d="M0.130134 0.130134C0.213483 0.0468091 0.326514 0 0.444371 0C0.562227 0 0.675258 0.0468091 0.758608 0.130134L3.86987 3.24139C3.95319 3.32474 4 3.43777 4 3.55563C4 3.67349 3.95319 3.78652 3.86987 3.86987L0.758608 6.98113C0.67478 7.06209 0.562508 7.10689 0.44597 7.10588C0.329433 7.10486 0.217955 7.05812 0.135548 6.97571C0.0531402 6.8933 0.00639632 6.78183 0.00538364 6.66529C0.00437096 6.54875 0.0491706 6.43648 0.130134 6.35265L2.92716 3.55563L0.130134 0.758608C0.0468091 0.675258 0 0.562227 0 0.444371C0 0.326514 0.0468091 0.213483 0.130134 0.130134Z" fill="white"/>
</svg>
