<svg width="30" height="17" viewBox="0 0 30 17" fill="none" xmlns="http://www.w3.org/2000/svg">
<path d="M29.8017 8.01186L22.9837 1.19378C22.7388 0.907787 22.3084 0.874448 22.0224 1.11942C21.7364 1.36434 21.703 1.79476 21.948 2.08075C21.9709 2.10741 21.9957 2.13232 22.0224 2.15511L27.6745 7.81411H0.681785C0.305268 7.81411 0 8.11938 0 8.49595C0 8.87253 0.305268 9.17774 0.681785 9.17774H27.6745L22.0224 14.8299C21.7364 15.0748 21.703 15.5052 21.948 15.7912C22.193 16.0772 22.6233 16.1105 22.9093 15.8656C22.936 15.8427 22.9609 15.8179 22.9837 15.7912L29.8018 8.97313C30.0661 8.7073 30.0661 8.27781 29.8017 8.01186Z" fill="#DF1F2B"/>
</svg>
