<svg width="20" height="15" viewBox="0 0 20 15" fill="none" xmlns="http://www.w3.org/2000/svg">
<path d="M20 14.1725C19.9983 14.3914 19.9028 14.6008 19.7341 14.7557C19.5653 14.9105 19.3369 14.9983 19.0982 15H2.72C2.48074 14.9998 2.25136 14.9125 2.08226 14.7573C1.91317 14.6022 1.81818 14.3918 1.81818 14.1725V13.3333H18.1818V3.58333L10.9091 9.58333L1.81818 2.08333V0.833333C1.81818 0.61232 1.91396 0.400358 2.08445 0.244078C2.25494 0.0877973 2.48617 0 2.72727 0H19.0909C19.332 0 19.5632 0.0877973 19.7337 0.244078C19.9042 0.400358 20 0.61232 20 0.833333V14.1725ZM4.03091 1.66667L10.9091 7.34167L17.7873 1.66667H4.03091ZM0 10H7.27273V11.6667H0V10ZM0 5.83333H4.54545V7.5H0V5.83333Z" fill="#DF1F2B"/>
</svg>
