<svg width="16" height="20" viewBox="0 0 16 20" fill="none" xmlns="http://www.w3.org/2000/svg">
<path fill-rule="evenodd" clip-rule="evenodd" d="M11.8679 13.5371C13.0352 11.9167 13.8333 10.1359 13.8333 8.33332C13.8333 5.11166 11.2217 2.49998 8 2.49998C4.77834 2.49998 2.16667 5.11166 2.16667 8.33332C2.16667 10.1359 2.96474 11.9167 4.13205 13.5371C5.29056 15.1452 6.71508 16.4586 7.73075 17.2904C7.89733 17.4268 8.10266 17.4268 8.26925 17.2904C9.28491 16.4586 10.7094 15.1452 11.8679 13.5371ZM9.32533 18.5797C11.4788 16.8159 15.5 12.9097 15.5 8.33332C15.5 4.19118 12.1422 0.833313 8 0.833313C3.85786 0.833313 0.5 4.19118 0.5 8.33332C0.5 12.9097 4.52114 16.8159 6.67466 18.5797C7.4555 19.2192 8.5445 19.2192 9.32533 18.5797Z" fill="#DF1F2B"/>
<path fill-rule="evenodd" clip-rule="evenodd" d="M8.00033 6.66667C7.07983 6.66667 6.33366 7.41286 6.33366 8.33334C6.33366 9.25384 7.07983 10 8.00033 10C8.92084 10 9.667 9.25384 9.667 8.33334C9.667 7.41286 8.92084 6.66667 8.00033 6.66667ZM4.66699 8.33334C4.66699 6.49239 6.15938 5 8.00033 5C9.84125 5 11.3337 6.49239 11.3337 8.33334C11.3337 10.1743 9.84125 11.6667 8.00033 11.6667C6.15938 11.6667 4.66699 10.1743 4.66699 8.33334Z" fill="#DF1F2B"/>
</svg>
