<svg width="20" height="15" viewBox="0 0 20 15" fill="none" xmlns="http://www.w3.org/2000/svg">
<path fill-rule="evenodd" clip-rule="evenodd" d="M1.5 -0.0003H18.5C19.3284 -0.0003 19.9999 0.67125 19.9999 1.4998C19.9999 2.32836 19.3284 2.99991 18.5 2.99991H1.5C0.67156 2.99991 -0.0001 2.32836 -0.0001 1.4998C-0.0001 0.67125 0.67156 -0.0003 1.5 -0.0003Z" fill="#DF1F2B"/>
<path fill-rule="evenodd" clip-rule="evenodd" d="M1.5 5.99968H18.5C19.3284 5.99968 19.9999 6.67124 19.9999 7.49979C19.9999 8.32835 19.3284 8.99988 18.5 8.99988H1.5C0.67156 8.99988 -0.0001 8.32835 -0.0001 7.49979C-0.0001 6.67124 0.67156 5.99968 1.5 5.99968Z" fill="#DF1F2B"/>
<path fill-rule="evenodd" clip-rule="evenodd" d="M1.5 11.9997H11.5C12.3284 11.9997 12.9999 12.6712 12.9999 13.4998C12.9999 14.3283 12.3284 14.9999 11.5 14.9999H1.5C0.67156 14.9999 -0.0001 14.3283 -0.0001 13.4998C-0.0001 12.6712 0.67156 11.9997 1.5 11.9997Z" fill="#DF1F2B"/>
</svg>
