<svg width="69" height="69" viewBox="0 0 69 69" fill="none" xmlns="http://www.w3.org/2000/svg">
<rect x="21" y="21" width="29" height="26" fill="white"/>
<path d="M54.6696 10.0869H14.3304C6.41594 10.0869 0 16.5029 0 24.4173V44.5826C0 52.4971 6.41594 58.9131 14.3304 58.9131H54.6696C62.5841 58.9131 69 52.4971 69 44.5826V24.4173C69 16.5029 62.5841 10.0869 54.6696 10.0869ZM44.978 35.4811L26.1101 44.48C25.6073 44.7197 25.0266 44.3532 25.0266 43.7963V25.236C25.0266 24.6712 25.6226 24.3051 26.1264 24.5604L44.9943 34.1218C45.5553 34.406 45.5456 35.2105 44.978 35.4811Z" fill="#F61C0D"/>
</svg>
