<svg width="43" height="61" viewBox="0 0 43 61" fill="none" xmlns="http://www.w3.org/2000/svg">
<path d="M42.3022 21.1512C42.3022 25.9219 38.956 33.7848 32.3567 44.5195C27.5311 52.3693 22.6365 58.9926 22.5876 59.0593L21.151 61L19.7146 59.0593C19.6657 58.9926 14.7711 52.3693 9.9455 44.5195C3.34618 33.7848 1.12232e-09 25.9219 1.12232e-09 21.1512C-0.00011914 9.48896 9.48776 0 21.151 0C32.8143 0 42.3022 9.48896 42.3022 21.1512Z" fill="#FF1A4B"/>
<path d="M42.3022 21.1512C42.3022 25.9219 38.956 33.7848 32.3567 44.5195C27.5311 52.3693 22.6365 58.9926 22.5876 59.0593L21.151 61V0C32.8143 0 42.3022 9.48896 42.3022 21.1512Z" fill="#D5243E"/>
<path d="M21.1171 3.56639L24.9682 15.4187H37.4305L27.3483 22.7439L31.1993 34.5962L21.1171 27.2711L11.0349 34.5962L14.8859 22.7439L4.80375 15.4187H17.2661L21.1171 3.56639Z" fill="white"/>
<path d="M20.5215 19.738L6.69439 15.4187L4.80375 15.4187L6.22858 16.4539L20.1733 20.8102L11.6144 32.8128L11.0349 34.5962L12.4719 33.5522L21.0855 21.473L29.7495 33.5428L31.1993 34.5962L30.6254 32.8298L21.9975 20.8104L36.0098 16.4508L37.4305 15.4187L35.5319 15.4187L21.649 19.738L21.6774 5.29075L21.1171 3.56639L20.55 5.31181L20.5215 19.738Z" fill="#F3F3F3"/>
<path d="M21.084 26.7047C24.1971 26.7047 26.7208 24.1811 26.7208 21.068C26.7208 17.9549 24.1971 15.4312 21.084 15.4312C17.9709 15.4312 15.4473 17.9549 15.4473 21.068C15.4473 24.1811 17.9709 26.7047 21.084 26.7047Z" fill="#D5243E"/>
</svg>
