<svg width="46" height="46" viewBox="0 0 46 46" fill="none" xmlns="http://www.w3.org/2000/svg">
<path d="M22.996 43.8432C18.6053 43.8494 14.3534 42.3051 10.99 39.4827L8.03742 42.5037C7.90542 42.6387 7.74813 42.7463 7.57452 42.8205C7.40092 42.8947 7.21439 42.934 7.02561 42.9361C6.83682 42.9383 6.64946 42.9032 6.47423 42.8329C6.299 42.7626 6.13933 42.6585 6.00434 42.5265C5.86935 42.3945 5.76168 42.2372 5.68747 42.0636C5.61327 41.89 5.57399 41.7035 5.57187 41.5147C5.56975 41.3259 5.60484 41.1385 5.67512 40.9633C5.74541 40.7881 5.84953 40.6284 5.98152 40.4934L10.1997 36.1802C10.3876 35.9882 10.6441 35.8786 10.9127 35.8757C11.1814 35.8728 11.4402 35.9766 11.6322 36.1645C14.6992 39.1803 18.8309 40.8664 23.1322 40.8574C27.5436 40.8574 31.6 39.117 34.5551 35.9574C37.7733 32.5164 39.2463 28.0174 38.7033 23.2894C38.3795 20.4404 37.2724 17.7368 35.5049 15.4789C32.8534 12.0971 29.0864 9.96091 24.8974 9.46363C23.2295 9.27388 21.6164 8.75215 20.1532 7.92919L17.8504 6.62474L20.677 6.58405C25.676 6.58405 32.5697 8.37984 36.0747 11.813C40.4681 16.116 42.423 22.1152 41.4384 28.2723C41.0216 30.8448 40.0554 33.2973 38.6058 35.4629C35.2271 40.4994 29.855 43.5464 23.8657 43.8233C23.5763 43.8366 23.2856 43.8432 22.996 43.8432Z" fill="#FDB62F"/>
<path d="M36.4576 38.1269L34.2235 36.2776C33.0252 37.4873 31.6335 38.4886 30.1057 39.2403L32.2663 41.3966C33.8119 40.5118 35.2233 39.4108 36.4576 38.1269Z" fill="#EC9E15"/>
<path d="M9.01464 2.322L10.0422 5.4845H13.3675C13.4282 5.48449 13.4874 5.50371 13.5365 5.5394C13.5856 5.57508 13.6222 5.62541 13.6409 5.68315C13.6597 5.7409 13.6597 5.8031 13.6409 5.86085C13.6222 5.9186 13.5856 5.96892 13.5365 6.0046L10.8463 7.95924L11.8738 11.1217C11.8926 11.1795 11.8926 11.2417 11.8738 11.2994C11.8551 11.3572 11.8185 11.4075 11.7694 11.4432C11.7203 11.4789 11.6611 11.4981 11.6004 11.4981C11.5397 11.4981 11.4806 11.4789 11.4314 11.4432L8.74124 9.48865L6.05096 11.4432C6.00184 11.4789 5.94268 11.4981 5.88197 11.4981C5.82126 11.4981 5.76211 11.4789 5.71299 11.4432C5.66388 11.4075 5.62732 11.3572 5.60856 11.2994C5.58981 11.2417 5.58981 11.1795 5.60857 11.1217L6.63611 7.95924L3.94592 6.00469C3.8968 5.96901 3.86024 5.9187 3.84147 5.86096C3.82271 5.80322 3.8227 5.74103 3.84145 5.68329C3.8602 5.62554 3.89675 5.57522 3.94586 5.53953C3.99497 5.50383 4.05412 5.4846 4.11483 5.48459H7.44022L8.46776 2.32209C8.4865 2.26433 8.52306 2.214 8.57217 2.1783C8.62129 2.1426 8.68044 2.12336 8.74116 2.12335C8.80188 2.12334 8.86105 2.14256 8.91018 2.17824C8.9593 2.21393 8.99587 2.26425 9.01464 2.322Z" fill="#F8DB42"/>
<path d="M38.1327 38.0758L16.5133 20.1807L22.7992 13.2676L15.6437 12.59L6.94043 22.1621L11.1945 26.0303L14.5795 22.3082L34.4439 42.1328C34.7068 42.3941 35.02 42.5993 35.3644 42.7363C35.7088 42.8732 36.0773 42.9389 36.4478 42.9295C36.8183 42.9201 37.1831 42.8358 37.5201 42.6816C37.8572 42.5274 38.1595 42.3065 38.4088 42.0323C38.6581 41.758 38.8493 41.4362 38.9709 41.086C39.0924 40.7359 39.1418 40.3648 39.116 39.995C39.0902 39.6253 38.9897 39.2646 38.8208 38.9348C38.6518 38.6049 38.4177 38.3127 38.1327 38.0758Z" fill="#FDB62F"/>
<path d="M17.4365 20.9446L16.5137 20.1807L22.7997 13.2676L14.5796 22.3078V22.3079L15.419 23.1456L17.4365 20.9446Z" fill="#EC9E15"/>
</svg>
