<svg width="127" height="134" viewBox="0 0 127 134" fill="none" xmlns="http://www.w3.org/2000/svg">
<path fill-rule="evenodd" clip-rule="evenodd" d="M83.6738 0C107.785 29.3841 126.564 69.2922 111.147 100.947C110.021 103.267 108.572 105.405 106.883 107.361L35.7904 36.3283L56.1675 14.5595L55.9108 14.3275H32.0726L23.2213 23.7824L21.0933 21.6528L15.5954 27.4534L17.7151 29.6742L2.9849 45.4021L15.9514 57.517L29.9861 42.5266L98.5116 114.305C88.7329 120.172 75.609 122.061 63.0896 118.415C50.5536 114.761 38.5641 103.706 32.0892 95.7677L26.2931 101.56L23.5856 99.0824L19.4456 102.389C21.1927 108.256 7.15804 114.827 2.16519 119.724C-3.71363 125.483 3.2747 137.565 12.3993 126.776C17.4501 120.81 20.5882 110.8 26.8645 110.849L30.1351 107.535C42.6876 119.476 56.6229 130.961 73.9116 132.063C87.6399 132.941 98.7682 129.221 107.197 123.395L116.338 132.974C120.561 136.504 128.22 130.248 123.973 124.439L115.577 116.045C121.497 109.507 125.041 101.974 126.109 95.4611C132.335 57.4093 104.622 20.4844 83.6738 0Z" fill="white"/>
</svg>
