<svg width="20" height="17" viewBox="0 0 20 17" fill="none" xmlns="http://www.w3.org/2000/svg">
<path d="M13.8641 1.9954C13.1063 1.99527 12.3787 2.29264 11.838 2.82352C11.2972 3.3544 10.9865 4.07636 10.9726 4.83403L10.9447 6.40439C10.9431 6.48871 10.9236 6.57173 10.8877 6.648C10.8517 6.72427 10.8 6.79208 10.736 6.84697C10.6719 6.90186 10.597 6.94259 10.5162 6.9665C10.4353 6.9904 10.3503 6.99694 10.2667 6.98568L8.71031 6.7743C6.66235 6.49513 4.70013 5.55191 2.81769 3.98354C2.22145 7.2838 3.38601 9.57006 6.19074 11.3339L7.9326 12.4286C8.01536 12.4806 8.08412 12.5521 8.13286 12.6369C8.18159 12.7216 8.20882 12.817 8.21217 12.9147C8.21551 13.0124 8.19487 13.1094 8.15204 13.1972C8.10922 13.2851 8.04551 13.3612 7.9665 13.4187L6.37918 14.5783C7.3234 14.6371 8.21975 14.5952 8.96356 14.4477C13.6677 13.5084 16.7955 9.96888 16.7955 4.1301C16.7955 3.65351 15.7864 1.9954 13.8641 1.9954ZM8.97851 4.79713C8.99592 3.83602 9.29646 2.9014 9.84252 2.11028C10.3886 1.31917 11.1559 0.706721 12.0484 0.349622C12.9409 -0.00747731 13.9188 -0.0933587 14.8599 0.102731C15.801 0.29882 16.6633 0.768165 17.3389 1.452C18.0478 1.44702 18.651 1.62649 20 0.8089C19.666 2.44408 19.5015 3.15398 18.7896 4.1301C18.7896 11.7496 14.1064 15.4547 9.3544 16.4029C6.09602 17.053 1.35799 15.9851 0 14.5673C0.691959 14.5135 3.50366 14.2114 5.12887 13.0219C3.75393 12.1155 -1.71893 8.89505 1.87746 0.236588C3.56548 2.20777 5.27743 3.54981 7.01231 4.26171C8.16691 4.73532 8.45007 4.72535 8.97951 4.79813L8.97851 4.79713Z" fill="#DF1F2B"/>
</svg>
