<svg width="20" height="20" viewBox="0 0 20 20" fill="none" xmlns="http://www.w3.org/2000/svg">
<path d="M6.15775 6.10658C6.29175 6.09658 6.42675 6.09658 6.56075 6.10258C6.61475 6.10658 6.66875 6.11258 6.72275 6.11858C6.88175 6.13658 7.05675 6.23358 7.11575 6.36759C7.41375 7.04361 7.70375 7.72464 7.98375 8.40766C8.04575 8.55967 8.00874 8.75467 7.89074 8.94468C7.80959 9.07316 7.72181 9.19733 7.62775 9.31669C7.51475 9.4617 7.27175 9.72771 7.27175 9.72771C7.27175 9.72771 7.17275 9.84571 7.21075 9.99272C7.22475 10.0487 7.27075 10.1297 7.31275 10.1977L7.37175 10.2927C7.62775 10.7197 7.97175 11.1528 8.39175 11.5608C8.51174 11.6768 8.62875 11.7958 8.75475 11.9068C9.22274 12.3198 9.75274 12.6568 10.3247 12.9068L10.3297 12.9088C10.4147 12.9458 10.4577 12.9658 10.5817 13.0188C10.6437 13.0448 10.7077 13.0678 10.7727 13.0848C10.8399 13.1019 10.9107 13.0987 10.976 13.0756C11.0413 13.0524 11.0983 13.0104 11.1397 12.9548C11.8637 12.0778 11.9297 12.0208 11.9357 12.0208V12.0228C11.986 11.9759 12.0458 11.9403 12.111 11.9184C12.1762 11.8965 12.2453 11.8888 12.3137 11.8958C12.3737 11.8998 12.4347 11.9108 12.4907 11.9358C13.0217 12.1788 13.8907 12.5578 13.8907 12.5578L14.4727 12.8188C14.5707 12.8658 14.6597 12.9768 14.6627 13.0838C14.6667 13.1508 14.6727 13.2588 14.6497 13.4568C14.6177 13.7158 14.5397 14.0269 14.4617 14.1899C14.4083 14.3011 14.3374 14.4031 14.2517 14.4919C14.1508 14.5978 14.0404 14.6942 13.9217 14.7799C13.8807 14.8108 13.839 14.8408 13.7967 14.8699C13.6724 14.9488 13.5446 15.0222 13.4137 15.0899C13.1563 15.2267 12.8719 15.3052 12.5807 15.3199C12.3957 15.3299 12.2107 15.3439 12.0247 15.3339C12.0167 15.3339 11.4567 15.2469 11.4567 15.2469C10.035 14.8729 8.72013 14.1723 7.61675 13.2008C7.39075 13.0018 7.18175 12.7878 6.96775 12.5748C6.07775 11.6898 5.40575 10.7347 4.99775 9.83271C4.78892 9.38998 4.67611 8.90808 4.66675 8.41866C4.66263 7.81149 4.8611 7.22028 5.23075 6.7386C5.30375 6.6446 5.37275 6.54659 5.49175 6.43359C5.61875 6.31359 5.69875 6.24958 5.78575 6.20558C5.90142 6.14761 6.02761 6.1136 6.15675 6.10558L6.15775 6.10658Z" fill="white"/>
<path d="M9.90954 4.00014C9.59123 4.00014 9.33325 4.25813 9.33325 4.57645C9.33325 4.89462 9.59123 5.15276 9.90954 5.15276C11.2284 5.15276 12.4685 5.66634 13.4011 6.59909C14.3338 7.5317 14.8473 8.77167 14.8473 10.0907C14.8473 10.4089 15.1053 10.667 15.4236 10.667C15.7418 10.667 15.9999 10.4091 15.9999 10.0907C15.9999 8.46385 15.3664 6.93438 14.2161 5.784C13.0658 4.63363 11.5364 4.00014 9.90954 4.00014Z" fill="white"/>
<path d="M12.2349 10.1178C12.2349 10.4211 12.4809 10.667 12.7841 10.667C13.0874 10.667 13.3333 10.4211 13.3333 10.1178C13.3333 8.21496 11.7852 6.6669 9.88241 6.6669C9.57909 6.6669 9.33325 6.91275 9.33325 7.2161C9.33325 7.51945 9.57909 7.7653 9.88241 7.7653C11.1797 7.7653 12.2349 8.82065 12.2349 10.1178Z" fill="white"/>
<path d="M5.764 17.2256C6.354 16.9656 7.014 16.9166 7.632 17.0866C8.402 17.2966 9.197 17.4026 10 17.4006C14.585 17.4006 18 14.1135 18 9.70035C18 5.28719 14.585 2.00007 10 2.00007C5.415 2.00007 2 5.28719 2 9.70035C2 11.9704 2.896 13.9725 4.466 15.3766C4.75126 15.6292 4.98194 15.9375 5.14391 16.2824C5.30589 16.6274 5.39575 17.0017 5.408 17.3826L5.764 17.2256ZM10 0C15.634 0 20 4.12715 20 9.70035C20 15.2736 15.634 19.4007 10 19.4007C9.02214 19.4032 8.04839 19.2741 7.105 19.0167C6.9278 18.968 6.73924 18.9817 6.571 19.0557L4.587 19.9317C4.46713 19.9847 4.33608 20.0074 4.20537 19.9979C4.07467 19.9883 3.94831 19.9468 3.8374 19.877C3.72649 19.8072 3.63444 19.7112 3.56933 19.5974C3.50422 19.4837 3.46805 19.3557 3.464 19.2247L3.409 17.4446C3.4054 17.3364 3.37977 17.23 3.3337 17.132C3.28762 17.034 3.22205 16.9464 3.141 16.8746C1.195 15.1356 0 12.6175 0 9.70035C0 4.12715 4.367 0 10 0Z" fill="white"/>
</svg>
