<svg width="49" height="49" viewBox="0 0 49 49" fill="none" xmlns="http://www.w3.org/2000/svg">
<path d="M24.4541 3.06232L29.685 19.161H46.6121L32.9177 29.1105L38.1485 45.2092L24.4541 35.2597L10.7597 45.2092L15.9905 29.1105L2.29614 19.161H19.2234L24.4541 3.06232Z" fill="#DE4C3B"/>
<path d="M23.6451 25.0277L4.86415 19.1609H2.29614L4.23145 20.5671L23.1722 26.484L11.5468 42.7869L10.7597 45.209L10.7598 45.2091L12.7115 43.7912L24.4111 27.3844L36.1792 43.7784L38.1486 45.2092L37.369 42.8099L25.6499 26.4843L44.6825 20.5629L46.6121 19.1609H44.0333L25.1766 25.0277L25.2151 5.40446L24.4541 3.06232L23.6838 5.43307L23.6451 25.0277Z" fill="#F85542"/>
<path d="M24.4089 34.4905C28.6374 34.4905 32.0652 31.0627 32.0652 26.8342C32.0652 22.6058 28.6374 19.178 24.4089 19.178C20.1805 19.178 16.7527 22.6058 16.7527 26.8342C16.7527 31.0627 20.1805 34.4905 24.4089 34.4905Z" fill="#FDB62F"/>
<path d="M21.4447 32.1711L20.2095 31.2649L21.2858 29.7972C21.3457 29.7157 21.4211 29.6469 21.5077 29.5946C21.5944 29.5424 21.6905 29.5078 21.7905 29.4929C21.9925 29.4639 22.1977 29.5158 22.3617 29.6372C22.7849 29.9528 23.2687 30.1775 23.7828 30.2972C24.2969 30.4168 24.8303 30.4289 25.3493 30.3326C25.8683 30.2362 26.3617 30.0336 26.7987 29.7374C27.2356 29.4412 27.6066 29.0578 27.8882 28.6114C28.1699 28.165 28.3562 27.6651 28.4354 27.1432C28.5146 26.6213 28.4851 26.0887 28.3486 25.5788C28.2121 25.0689 27.9716 24.5927 27.6422 24.1802C27.3128 23.7677 26.9017 23.4277 26.4347 23.1817L27.1495 21.8268C28.4031 22.4968 29.3393 23.6374 29.752 24.9976C30.1647 26.3578 30.0201 27.8263 29.3501 29.0799C28.6801 30.3336 27.5396 31.2697 26.1793 31.6824C24.8191 32.0951 23.3507 31.9506 22.097 31.2806L21.4447 32.1711Z" fill="#EC9E15"/>
<path d="M29.0911 30.7707L23.4648 25.7041L25.002 23.9971L22.2139 22.5167L19.1399 25.9303L21.4156 27.9797L22.4402 26.8418L28.0668 31.9086L29.0911 30.7707Z" fill="#EC9E15"/>
</svg>
