<svg width="64" height="64" viewBox="0 0 64 64" fill="none" xmlns="http://www.w3.org/2000/svg">
<path d="M64 26.0429L62.9563 22.8302L42.6042 20.0451L33.6897 1.56753L30.3111 1.56641L21.3736 20.0615L1.04511 22.83L0 26.0428L14.8184 40.2519L11.1792 60.4483L13.9121 62.434L32.0001 52.7304L50.088 62.434L52.8211 60.4485L49.1837 40.2459L64 26.0429ZM49.8065 34.4517C49.7615 30.6996 48.5518 27.2227 46.5209 24.3679L58.6015 26.021L49.8065 34.4517ZM32.0001 48.7257C24.2489 48.7257 17.9427 42.4195 17.9427 34.6683C17.9427 26.9171 24.2488 20.6108 32.0001 20.6108C39.7515 20.6108 46.0575 26.9169 46.0575 34.6682C46.0575 42.4194 39.7514 48.7257 32.0001 48.7257ZM32.0001 16.859C30.1546 16.859 28.3738 17.1413 26.6985 17.6648L31.9987 6.69679L37.2881 17.6604C35.6168 17.1398 33.8406 16.859 32.0001 16.859ZM17.4715 24.3794C15.4448 27.2328 14.238 30.7067 14.1937 34.4551L5.40051 26.0234L17.4715 24.3794ZM17.721 45.2996C19.859 48.1638 22.8371 50.3661 26.2872 51.5376L15.5601 57.2923L17.721 45.2996ZM37.713 51.5376C41.164 50.3658 44.1428 48.1627 46.281 45.2972L48.4408 57.2927L37.713 51.5376Z" fill="white"/>
<path d="M38.3353 26.1808L37.0088 24.8543L34.3559 27.5072L35.6824 28.8337C37.263 30.4143 37.6224 32.7598 36.7631 34.6895L30.5388 28.4653L32.0421 26.9619L29.3892 24.3091L23.7297 29.9686L26.3826 32.6214L27.8859 31.1181L34.1102 37.3424C32.1804 38.2018 29.835 37.8424 28.2543 36.2618L26.928 34.9353L22.0076 39.8557L24.6604 42.5085L27.0669 40.1021C30.036 42.0294 33.8998 42.0281 36.8688 40.1009L39.2638 42.4959L41.9167 39.8431L39.5217 37.4481C41.7859 33.9602 41.3912 29.2367 38.3353 26.1808Z" fill="white"/>
</svg>
