<svg width="57" height="57" viewBox="0 0 57 57" fill="none" xmlns="http://www.w3.org/2000/svg">
<path d="M28.5001 0C24.8274 0 21.8501 2.9773 21.8501 6.65C21.8542 10.3209 24.8291 13.2958 28.5001 13.3C32.1728 13.3 35.1501 10.3227 35.1501 6.65C35.1501 2.9773 32.1728 0 28.5001 0ZM28.5001 11.4C25.8768 11.4 23.7501 9.27331 23.7501 6.65C23.7531 4.028 25.8781 1.90309 28.5001 1.9C31.1234 1.9 33.2501 4.02669 33.2501 6.65C33.2501 9.27331 31.1234 11.4 28.5001 11.4Z" fill="white"/>
<path d="M31.3501 14.25H25.6501C20.9302 14.2552 17.1053 18.0802 17.1 22.8V38.95H20.9V57H22.8001V35.15H20.9V37.05H19V22.8C19.0042 19.1291 21.9791 16.1542 25.6501 16.15H31.3501C35.021 16.1542 37.9959 19.1291 38.0001 22.8V37.05H36.1001V35.15H34.2001V57H36.1001V38.95H39.9001V22.8C39.8949 18.0802 36.0699 14.2552 31.3501 14.25Z" fill="white"/>
<path d="M29.4499 38.95H27.5499V57H29.4499V38.95Z" fill="white"/>
<path d="M47.5 9.5C44.3519 9.5 41.8 12.0519 41.8 15.2C41.8031 18.3468 44.3532 20.8969 47.5 20.9C50.648 20.9 53.2 18.3481 53.2 15.2C53.2 12.0519 50.648 9.5 47.5 9.5ZM47.5 19C45.4013 19 43.7 17.2987 43.7 15.2C43.7 13.1013 45.4013 11.4 47.5 11.4C49.5987 11.4 51.3 13.1013 51.3 15.2C51.3 17.2987 49.5987 19 47.5 19Z" fill="white"/>
<path d="M50.35 21.85H41.8V23.75H50.35C52.972 23.7531 55.0969 25.878 55.1 28.5V40.85H53.2V38.95H51.3V57H53.2V42.75H57V28.5C56.9958 24.8291 54.0209 21.8542 50.35 21.85Z" fill="white"/>
<path d="M41.8001 38.95V40.85H38.0001V42.75H41.8001V57H43.7001V38.95H41.8001Z" fill="white"/>
<path d="M48.4501 42.75H46.5501V57H48.4501V42.75Z" fill="white"/>
<path d="M9.50002 9.5C6.35195 9.5 3.80001 12.0519 3.80001 15.2C3.8031 18.3468 6.35326 20.8969 9.50002 20.9C12.6481 20.9 15.2 18.3481 15.2 15.2C15.2 12.0519 12.6481 9.5 9.50002 9.5ZM9.50002 19C7.40135 19 5.70001 17.2987 5.70001 15.2C5.70001 13.1013 7.40135 11.4 9.50002 11.4C11.5987 11.4 13.3 13.1013 13.3 15.2C13.3 17.2987 11.5987 19 9.50002 19Z" fill="white"/>
<path d="M6.65002 21.85C2.97909 21.8542 0.00415626 24.8291 0 28.5V42.75H3.80001V57H5.70001V38.95H3.80001V40.85H1.9V28.5C1.90309 25.878 4.02801 23.7531 6.65002 23.75H15.2V21.85H6.65002Z" fill="white"/>
<path d="M15.1999 40.85V38.95H13.2999V57H15.1999V42.75H18.9999V40.85H15.1999Z" fill="white"/>
<path d="M10.45 42.75H8.55002V57H10.45V42.75Z" fill="white"/>
</svg>
