<svg width="69" height="239" viewBox="0 0 69 239" fill="none" xmlns="http://www.w3.org/2000/svg">
<path d="M1.52588e-05 238.604L1.46844e-05 225.463L23.4969 225.463L1.38745e-05 206.935L1.31904e-05 191.286L30.4624 215.154L68.3082 188.964L68.3082 204.381L37.9851 225.463L68.3082 225.463L68.3082 238.604L1.52588e-05 238.604Z" fill="#F3F3F3"/>
<path d="M1.2687e-05 179.769L1.05375e-05 130.593L68.3082 130.593L68.3082 143.735L12.1664 143.735L12.1664 166.581L68.3082 166.581L68.3082 179.769L1.2687e-05 179.769Z" fill="#F3F3F3"/>
<path d="M9.85747e-06 115.037L9.25462e-06 101.245C8.9285e-06 93.7844 0.696557 88.4132 2.08965 85.1317C3.45179 81.8192 5.68075 79.2188 8.77652 77.3303C11.8413 75.411 15.5253 74.4513 19.8284 74.4513C24.5959 74.4513 28.5585 75.7051 31.7162 78.2126C34.8739 80.6893 37.0719 84.0636 38.3102 88.3358C39.0222 90.8434 39.3782 95.4096 39.3782 102.035L68.3082 102.035L68.3082 115.037L9.85747e-06 115.037ZM26.701 102.035L26.701 97.9017C26.701 94.6512 26.4688 92.3913 26.0045 91.122C25.5401 89.8527 24.7816 88.8621 23.7291 88.1501C22.6456 87.4071 21.3453 87.0356 19.8284 87.0356C17.197 87.0356 15.2776 88.0572 14.0703 90.1004C13.1725 91.5864 12.7236 94.3416 12.7236 98.3661L12.7236 102.035L26.701 102.035Z" fill="#F3F3F3"/>
<path d="M6.03129e-06 27.5039L8.82295 27.5039L8.82295 24.6249C8.82295 8.21727 15.5872 0.0134881 29.1157 0.0134875C32.9545 0.0134873 36.2205 0.663588 38.9138 1.96382C41.5762 3.23308 43.7897 5.1215 45.5543 7.62907C47.2879 10.1057 48.4333 12.6752 48.9906 15.3375C49.5168 17.9689 49.78 22.0244 49.78 27.5039L68.3082 27.5039L68.3082 40.599L49.78 40.599C49.78 46.3262 49.2073 51.0318 48.0618 54.7157C46.9164 58.3687 44.7494 61.3716 41.5607 63.7244C38.3411 66.0772 34.3166 67.2536 29.4872 67.2536C24.9364 67.2536 21.0977 66.3094 17.971 64.421C14.8442 62.5326 12.5379 59.8702 11.0519 56.4339C9.56594 52.9666 8.82295 47.6883 8.82295 40.599L6.6037e-06 40.599L6.03129e-06 27.5039ZM20.8036 40.599L20.8036 43.6174C20.8036 48.1682 21.5466 51.202 23.0325 52.719C24.4875 54.2359 26.6236 54.9944 29.4408 54.9944C32.7533 54.9944 35.0441 54.0811 36.3134 52.2546C37.5827 50.3971 38.2173 47.6883 38.2173 44.1282L38.2173 40.599L20.8036 40.599ZM20.8036 27.5039L38.2173 27.5039L38.2173 23.2318C38.2173 18.8358 37.3969 15.9257 35.7562 14.5017C34.1154 13.0776 31.9793 12.3656 29.3479 12.3656C26.6546 12.3656 24.5649 13.1241 23.079 14.641C21.562 16.127 20.8036 19.1453 20.8036 23.6961L20.8036 27.5039Z" fill="#F3F3F3"/>
</svg>
