<svg width="30" height="30" viewBox="0 0 30 30" fill="none" xmlns="http://www.w3.org/2000/svg">
<path fill-rule="evenodd" clip-rule="evenodd" d="M8.33333 10.0001C8.33333 8.23203 9.03571 6.53635 10.286 5.28611C11.5362 4.03588 13.2319 3.3335 15 3.3335C16.7681 3.3335 18.4638 4.03588 19.714 5.28611C20.9643 6.53635 21.6667 8.23203 21.6667 10.0001C21.6667 11.7682 20.9643 13.4639 19.714 14.7141C18.4638 15.9644 16.7681 16.6668 15 16.6668C13.2319 16.6668 11.5362 15.9644 10.286 14.7141C9.03571 13.4639 8.33333 11.7682 8.33333 10.0001ZM21.3733 17.7051C22.9592 16.3932 24.1016 14.6239 24.6447 12.6387C25.1878 10.6535 25.1052 8.5491 24.408 6.61262C23.7108 4.67615 22.4331 3.00195 20.7492 1.8185C19.0654 0.635055 17.0573 0 14.9992 0C12.941 0 10.933 0.635055 9.24909 1.8185C7.56521 3.00195 6.28751 4.67615 5.59034 6.61262C4.89317 8.5491 4.8105 10.6535 5.35361 12.6387C5.89672 14.6239 7.03915 16.3932 8.625 17.7051C3.31 19.5767 0 23.745 0 28.3333C0 28.7754 0.175595 29.1993 0.488155 29.5118C0.800716 29.8244 1.22464 30 1.66667 30C2.10869 30 2.53262 29.8244 2.84518 29.5118C3.15774 29.1993 3.33333 28.7754 3.33333 28.3333C3.33333 24.55 7.25833 20.0001 15 20.0001C22.7417 20.0001 26.6667 24.55 26.6667 28.3333C26.6667 28.7754 26.8423 29.1993 27.1548 29.5118C27.4674 29.8244 27.8913 30 28.3333 30C28.7754 30 29.1993 29.8244 29.5118 29.5118C29.8244 29.1993 30 28.7754 30 28.3333C30 23.745 26.6933 19.5767 21.3733 17.7051Z" fill="#B9B9B9"/>
</svg>
