<svg width="99" height="111" viewBox="0 0 99 111" fill="none" xmlns="http://www.w3.org/2000/svg">
<path fill-rule="evenodd" clip-rule="evenodd" d="M38.1729 85.921H46.0206V110.762H38.1729V85.921Z" fill="#DF1F2B"/>
<path fill-rule="evenodd" clip-rule="evenodd" d="M25.0662 85.921H32.9176V110.762H25.0662V85.921Z" fill="#DF1F2B"/>
<path fill-rule="evenodd" clip-rule="evenodd" d="M49.1848 85.921H55.6311H57.0399H63.4826C67.4839 85.921 69.8514 89.6974 69.8514 94.3514C69.8514 99.0129 67.0008 102.786 63.4826 102.786H57.0399V110.759H49.1885V85.921H49.1848ZM58.0209 90.8259C61.1187 91.0877 62.1218 92.4079 62.1218 93.9937C62.1218 95.7454 61.6866 97.1689 57.0362 97.2095V90.8259H58.0209Z" fill="#DF1F2B"/>
<path fill-rule="evenodd" clip-rule="evenodd" d="M81.4607 83.2105H89.3121V87.245H92.6311C96.6324 87.2487 99 91.4749 99 96.6895C99 101.904 96.1493 106.13 92.6311 106.134H89.3121V110.766H81.4607V106.134H78.1416C74.6271 106.134 71.7727 101.904 71.7727 96.6895C71.7727 91.4749 74.1403 87.245 78.1416 87.245H81.4607V83.2105ZM89.3121 92.478C92.0595 92.8394 92.0816 94.5174 92.0816 96.5273C92.0816 98.515 91.8235 100.175 89.3121 100.562V92.478ZM81.4607 92.478C78.7132 92.8394 78.6948 94.5174 78.6948 96.5273C78.6948 98.515 78.9529 100.175 81.4607 100.562V92.478Z" fill="#DF1F2B"/>
<path fill-rule="evenodd" clip-rule="evenodd" d="M15.6328 97.2538L23.2482 110.762H13.9807L8.95047 100.186H8.50423V110.762H0.652832V85.921H8.50423V95.6053H8.83245L13.4718 85.921H22.0238L15.6328 97.2538Z" fill="#DF1F2B"/>
<path fill-rule="evenodd" clip-rule="evenodd" d="M31.5164 85.921H39.3678V92.2088H31.5164V85.921Z" fill="#DF1F2B"/>
<path d="M49.6124 28.0773C39.729 19.0642 34.0977 27.9482 19.5713 28.0773L28.979 77.0665C33.1757 76.7678 37.9552 74.0204 40.6842 73.9872C44.6043 73.9356 46.7396 74.9349 49.4833 76.5355C49.5276 76.5613 49.5682 76.5797 49.6124 76.6092C49.6567 76.5871 49.6972 76.5687 49.7415 76.5502C53.0495 74.7985 56.1915 73.4893 59.2266 73.718C62.4903 73.9651 66.1929 76.3621 70.5261 76.9338L78.8459 27.266C64.3122 27.1295 59.2266 18.7913 49.6124 28.0773Z" stroke="#DF1F2B" stroke-width="1.9928" stroke-miterlimit="22.9256"/>
<path fill-rule="evenodd" clip-rule="evenodd" d="M10.6062 75.0013L11.8122 74.249C12.0482 74.1015 12.1883 73.9945 12.2252 73.9282C12.2694 73.8618 12.2879 73.7807 12.2768 73.6848C12.2694 73.5889 12.1994 73.4414 12.0777 73.2459L12.1957 73.1685L13.5749 75.3738L13.4569 75.4476C13.3315 75.2484 13.2283 75.1267 13.1435 75.0751C13.066 75.0272 12.9812 75.0087 12.9074 75.0124C12.83 75.0235 12.6714 75.1009 12.4391 75.2484L9.61789 77.0075C9.38187 77.155 9.24173 77.2583 9.20116 77.3284C9.15691 77.3947 9.13847 77.4796 9.15322 77.5718C9.16059 77.6676 9.22697 77.8152 9.35235 78.0143L9.23434 78.0918L8.05056 76.1999C7.65965 75.5766 7.49368 75.0603 7.54899 74.651C7.60062 74.2416 7.79239 73.9319 8.12799 73.7216C8.40826 73.5446 8.7033 73.4856 9.01308 73.5336C9.32286 73.5815 9.61052 73.7401 9.87604 74.0019C10.0567 74.1753 10.3001 74.5109 10.6062 75.0013ZM8.48203 76.3289L10.3591 75.1562C10.3186 75.0825 10.2891 75.0271 10.2633 74.9903C10.101 74.7284 9.90185 74.5809 9.65845 74.533C9.41505 74.4924 9.1274 74.5662 8.80656 74.769C8.48203 74.9681 8.29026 75.1894 8.23126 75.4218C8.16856 75.6578 8.22389 75.9122 8.40091 76.1925L8.48203 76.3289ZM5.25517 71.4536C4.85688 70.7419 4.76838 70.0449 4.98596 69.3626C5.20355 68.6804 5.65345 68.1641 6.33201 67.8211C6.911 67.5261 7.50845 67.4376 8.12063 67.5519C8.93564 67.7031 9.54782 68.1862 9.96455 69.0049C10.3813 69.8273 10.4292 70.6017 10.0973 71.3356C9.83915 71.9109 9.40767 72.3535 8.80287 72.6632C8.12799 73.0062 7.44206 73.0652 6.75612 72.8329C6.07018 72.5969 5.56864 72.1396 5.25517 71.4536ZM5.44694 71.3024C5.66084 71.7192 6.037 71.9294 6.57542 71.9294C7.01427 71.9294 7.56375 71.7597 8.22018 71.4278C8.99832 71.0295 9.50726 70.6017 9.7359 70.1371C9.90185 69.8162 9.89446 69.4843 9.71745 69.1414C9.59943 68.909 9.44825 68.7468 9.2528 68.6472C9.0094 68.5218 8.70331 68.4849 8.33084 68.5365C7.95836 68.5845 7.51951 68.7394 7.01058 68.9975C6.40578 69.3036 5.98536 69.5913 5.74197 69.8531C5.49857 70.1186 5.35843 70.3694 5.32524 70.6054C5.28836 70.8488 5.32893 71.0775 5.44694 71.3024ZM1.86605 63.215L3.55508 62.6692L3.59933 62.8093C3.18998 63.0564 2.92078 63.3625 2.77695 63.7276C2.63682 64.089 2.62574 64.4541 2.74375 64.8155C2.83964 65.1216 3.01666 65.3687 3.27849 65.5678C3.53664 65.7633 3.82428 65.8739 4.14513 65.8998C4.55448 65.9329 4.98226 65.8776 5.42849 65.7338C5.85996 65.5937 6.24351 65.4093 6.56435 65.1843C6.88888 64.9557 7.09908 64.6975 7.20603 64.4025C7.31666 64.1112 7.3056 63.7756 7.1839 63.3994C7.08802 63.097 6.92945 62.8388 6.70818 62.625C6.4906 62.4147 6.17344 62.2193 5.75671 62.0423L6.17713 61.9058C6.5496 62.0865 6.852 62.3041 7.07327 62.5586C7.29823 62.813 7.47525 63.1376 7.60432 63.5322C7.77027 64.0485 7.8219 64.5463 7.74077 65.0147C7.66332 65.4867 7.46787 65.8924 7.14703 66.239C6.82619 66.582 6.44633 66.8291 6.00748 66.9729C5.54281 67.1241 5.05972 67.1463 4.56555 67.0356C4.07138 66.9287 3.6399 66.7074 3.27849 66.3681C2.9134 66.0288 2.65892 65.6305 2.50403 65.1622C2.3934 64.8229 2.34915 64.4357 2.37128 64.0079C2.38603 63.7571 2.38602 63.6059 2.36389 63.5469C2.33808 63.4695 2.29015 63.4141 2.21639 63.3773C2.14264 63.3367 2.03938 63.333 1.91399 63.3514L1.86605 63.215ZM0.56425 57.8676L2.29016 57.4694L2.32333 57.6132C1.89554 57.8271 1.59683 58.1074 1.4235 58.454C1.25386 58.8044 1.20593 59.1658 1.29443 59.5382C1.3645 59.8517 1.5194 60.1135 1.75911 60.3311C1.99882 60.5487 2.27541 60.6852 2.59256 60.7405C3.00191 60.8105 3.4297 60.7921 3.8833 60.6888C4.32953 60.5856 4.72411 60.4344 5.0634 60.2389C5.40268 60.0398 5.63871 59.8001 5.77148 59.5161C5.90424 59.2321 5.92267 58.9002 5.83416 58.5204C5.76041 58.2069 5.62763 57.9377 5.42849 57.7091C5.22934 57.4767 4.93065 57.2555 4.52868 57.0453L4.96015 56.9457C5.31787 57.1596 5.59815 57.403 5.7936 57.6722C5.99643 57.9451 6.14393 58.2844 6.23982 58.69C6.36151 59.2211 6.36521 59.7189 6.2472 60.1799C6.12919 60.6409 5.89685 61.0318 5.55019 61.349C5.19985 61.6661 4.80156 61.8763 4.35164 61.9833C3.87223 62.0939 3.3965 62.0718 2.90971 61.9206C2.42292 61.7694 2.01356 61.5112 1.68165 61.1424C1.34606 60.7737 1.12479 60.3532 1.01785 59.8775C0.936715 59.5272 0.921957 59.14 0.988338 58.7122C1.02522 58.4651 1.03629 58.3139 1.02154 58.2512C1.0031 58.1737 0.958828 58.111 0.888759 58.0668C0.81869 58.0262 0.719119 58.0078 0.590045 58.0188L0.56425 57.8676ZM0.984646 52.8596C0.711747 52.8817 0.52367 52.9296 0.435162 52.9997C0.339278 53.0698 0.302401 53.2357 0.32084 53.4902L0.331914 53.6598L0.191775 53.6672L0 50.9308L0.14014 50.9198L0.151191 51.1005C0.169631 51.3328 0.224953 51.4877 0.317149 51.5577C0.413032 51.6278 0.615869 51.6536 0.92196 51.6315L4.28527 51.3955C4.59873 51.3734 4.79787 51.3217 4.88269 51.2369C4.96383 51.1521 4.99702 50.9935 4.98227 50.7612L4.9712 50.5805L5.10765 50.5694L5.29942 53.3058L5.16297 53.3169L5.1519 53.1472C5.13346 52.9075 5.07447 52.7563 4.97858 52.6899C4.87901 52.6235 4.67617 52.6014 4.37377 52.6235L1.60053 52.8153L4.5508 54.4195C4.7942 54.4011 4.96752 54.3605 5.07078 54.2904C5.17404 54.224 5.2183 54.0544 5.19617 53.7889L5.1851 53.6119L5.32524 53.6008L5.51701 56.3372L5.37687 56.3482L5.36949 56.1786C5.35105 55.9426 5.29205 55.7877 5.19248 55.7176C5.09291 55.6476 4.89007 55.6218 4.58767 55.6439L1.22436 55.8799C0.918274 55.902 0.722809 55.9463 0.637989 56.0127C0.553169 56.0754 0.519993 56.2487 0.538432 56.5142L0.549484 56.6839L0.409345 56.6949L0.217592 53.9585L0.35771 53.9512L0.368784 54.1282C0.383535 54.3605 0.446225 54.5117 0.549484 54.5818C0.656432 54.6518 0.851901 54.6777 1.13955 54.6592L3.9423 54.4638L0.984646 52.8596ZM2.82487 47.0033L4.26314 47.0549C4.53973 47.066 4.71307 47.0844 4.77945 47.125C4.8532 47.1581 4.9085 47.2209 4.94538 47.3057C4.98595 47.3942 5.0007 47.5565 4.99332 47.7888L5.13346 47.7925L5.22566 45.1778L5.08552 45.1704C5.07815 45.4064 5.04865 45.5687 5.00071 45.6498C4.95645 45.7346 4.89746 45.7937 4.8237 45.8232C4.74994 45.8527 4.5766 45.8674 4.30001 45.8563L0.977286 45.742C0.700698 45.731 0.531045 45.7088 0.457288 45.672C0.387219 45.6351 0.331897 45.5761 0.291331 45.4876C0.250765 45.4027 0.236012 45.2405 0.243387 45.0081L0.10327 45.0045L0.0221261 47.3794C-8.99857e-07 47.9953 0.0295135 48.4526 0.10327 48.7402C0.177027 49.0316 0.328214 49.2713 0.549484 49.4594C0.774442 49.6474 1.03996 49.747 1.34974 49.7581C1.7259 49.7728 2.04306 49.6474 2.30121 49.3856C2.46716 49.2197 2.58887 48.9763 2.67737 48.6702L4.36641 49.9609C4.58399 50.1269 4.72043 50.2486 4.77206 50.3186C4.84951 50.4219 4.88639 50.5436 4.89008 50.68L5.02653 50.6837L5.08552 49.0758L2.80644 47.3462L2.82487 47.0033ZM0.313457 46.9184L2.55567 46.9959L2.54829 47.2098C2.53722 47.5601 2.49667 47.8183 2.42291 47.9916C2.35284 48.1613 2.23484 48.294 2.06151 48.3862C1.89187 48.4821 1.67059 48.5227 1.40507 48.5153C1.01415 48.5005 0.730188 48.401 0.549484 48.2129C0.36878 48.0248 0.28765 47.7261 0.298714 47.3204L0.313457 46.9184ZM3.26006 31.6471L4.57293 32.097L4.52868 32.2261C4.19677 32.2003 3.95337 32.2077 3.78742 32.2556C3.62146 32.3035 3.47394 32.3957 3.34118 32.5285C3.26374 32.6059 3.19367 32.7571 3.11254 32.9821L2.98714 33.3398L6.72292 34.6269C6.97001 34.7117 7.13229 34.7523 7.20236 34.7449C7.27612 34.7375 7.34617 34.7006 7.41993 34.6379C7.49737 34.5752 7.55638 34.472 7.60432 34.3355L7.65965 34.1733L7.7924 34.2175L6.91839 36.7511L6.78563 36.7068L6.84094 36.5446C6.88888 36.4044 6.89994 36.2827 6.88519 36.1795C6.87412 36.1057 6.83357 36.0393 6.76351 35.9766C6.71925 35.9324 6.57172 35.8623 6.32832 35.7812L2.59256 34.4941L2.47086 34.8482C2.35653 35.1727 2.34546 35.4308 2.43396 35.6263C2.55566 35.8992 2.78431 36.1241 3.12359 36.3049L3.07567 36.4376L1.7628 35.9877L3.26006 31.6471ZM6.89257 30.2605L8.17962 30.8579C8.43408 30.9759 8.59636 31.0349 8.67749 31.0312C8.75494 31.0312 8.83605 31.0017 8.90981 30.939C8.98725 30.88 9.07577 30.7436 9.17165 30.5334L9.29705 30.5924L8.19806 32.9489L8.07268 32.8899C8.17226 32.6723 8.2202 32.5174 8.21651 32.4252C8.20914 32.3294 8.187 32.2519 8.13537 32.1892C8.08743 32.1302 7.93624 32.0417 7.68546 31.9237L4.67248 30.5223C4.41802 30.4043 4.25577 30.3453 4.17464 30.3453C4.09719 30.3453 4.01974 30.3748 3.9423 30.4375C3.86486 30.4965 3.78003 30.633 3.68046 30.8468L3.55139 30.7878L4.49548 28.7669C4.80525 28.0994 5.1519 27.679 5.52068 27.4983C5.89315 27.3213 6.25826 27.3139 6.61229 27.4798C6.91469 27.62 7.12859 27.8339 7.25397 28.1215C7.38305 28.4055 7.40518 28.7337 7.33142 29.0988C7.28348 29.3496 7.13597 29.7331 6.89257 30.2605ZM4.61718 29.2021L6.62337 30.1351C6.66393 30.0613 6.68974 30.006 6.70818 29.9691C6.84094 29.6889 6.8557 29.4381 6.75981 29.2131C6.66393 28.9845 6.44266 28.789 6.09601 28.6268C5.75304 28.4682 5.46538 28.4276 5.23304 28.5014C5.0044 28.5788 4.82001 28.7669 4.67987 29.0656L4.61718 29.2021ZM7.6707 22.8774L8.52997 21.3949L8.64799 21.465C8.57054 21.6273 8.55579 21.7821 8.60004 21.937C8.6443 22.0882 8.76968 22.3316 8.98726 22.6599L10.9012 25.6027C11.2 26.06 11.3512 26.3993 11.3659 26.6132C11.3733 26.8308 11.3143 27.0447 11.1889 27.266C11.0525 27.502 10.8828 27.6458 10.6873 27.6901C10.4845 27.738 10.3112 27.7159 10.1489 27.6237C10.0199 27.5499 9.93872 27.443 9.90553 27.3102C9.87234 27.1774 9.89079 27.0447 9.96455 26.9193C10.0309 26.805 10.112 26.7349 10.2042 26.7165C10.2964 26.698 10.4255 26.7238 10.5988 26.7939C10.8017 26.875 10.9381 26.8529 11.0156 26.7238C11.1004 26.5726 11.0414 26.3403 10.8275 26.0342L10.7316 25.8978L6.93313 25.8203C6.61229 25.8166 6.38733 25.8425 6.25825 25.8978C6.12918 25.9605 6.00381 26.0785 5.88211 26.2592L5.7604 26.1854L7.04009 23.9801L7.16178 24.0502L7.11383 24.135C6.96632 24.3894 6.94788 24.5554 7.06958 24.6255C7.11752 24.6513 7.19867 24.666 7.31668 24.6697L9.97929 24.7287L8.81025 22.9364C8.64799 22.6894 8.5226 22.5418 8.42303 22.4828C8.34559 22.4386 8.26813 22.4386 8.17962 22.4755C8.0948 22.516 7.96574 22.6746 7.79979 22.9475L7.6707 22.8774ZM9.10896 20.6795L11.7753 17.3936L11.8859 17.4821C11.6978 17.7329 11.6056 17.921 11.6167 18.0353C11.6241 18.157 11.7384 18.3008 11.9523 18.4742L14.6112 20.6242C14.7809 20.7606 14.9099 20.8417 14.9947 20.8749C15.0832 20.9007 15.1828 20.8897 15.2971 20.8344C15.4115 20.7827 15.5295 20.6795 15.6512 20.5283L16.9235 21.5572L16.835 21.6678C16.4699 21.4134 16.09 21.3101 15.6881 21.3617C15.2898 21.4134 14.9284 21.6383 14.6112 22.0329L13.7335 23.1135C13.4016 23.5228 13.2357 23.9322 13.2357 24.3415C13.2357 24.7509 13.4053 25.127 13.7519 25.47L13.6634 25.5769L12.3948 24.548C12.6898 23.9875 12.6456 23.379 12.2547 22.7225C11.8675 22.0624 11.2073 21.3543 10.2706 20.5983C10.0457 20.4176 9.86866 20.3365 9.7359 20.3586C9.60683 20.3808 9.43349 20.5172 9.22329 20.7717L9.10896 20.6795ZM10.8865 19.0163L10.0752 20.0157L10.4145 20.2923C10.8939 20.6795 11.3327 21.0851 11.7347 21.5166C12.1367 21.9481 12.4243 22.3243 12.5903 22.6451C12.7562 22.9659 12.8595 23.2942 12.8853 23.6224L14.0322 22.2062C14.1871 22.0145 14.2682 21.8891 14.2682 21.8375C14.2682 21.7821 14.1982 21.6936 14.0507 21.5793L10.8865 19.0163ZM22.0791 11.4414L22.99 12.7359C23.1375 12.9498 23.2444 13.0752 23.3071 13.1157C23.3661 13.1526 23.4473 13.1637 23.5432 13.16C23.6391 13.1489 23.746 13.1047 23.8677 13.0235L24.0078 12.9276L24.0853 13.042L21.891 14.5761L21.8136 14.4618L21.9537 14.3659C22.0754 14.2811 22.1565 14.1889 22.2008 14.0967C22.2377 14.0303 22.245 13.9529 22.2229 13.8607C22.2119 13.798 22.1307 13.6615 21.9869 13.4476L20.0545 10.6928C19.907 10.4789 19.8 10.3572 19.7373 10.3167C19.6746 10.2798 19.5972 10.265 19.5013 10.2724C19.4054 10.2798 19.2985 10.324 19.1805 10.4052L19.0403 10.501L18.9629 10.3867L21.1571 8.85259L21.2346 8.96691L21.0981 9.06278C20.9764 9.1476 20.8916 9.23612 20.8474 9.332C20.8142 9.39838 20.8031 9.47583 20.8252 9.56803C20.8326 9.63072 20.9174 9.76717 21.0612 9.97737L21.891 11.1649L23.3735 10.1286L22.5438 8.94109C22.3926 8.7272 22.2893 8.60181 22.2266 8.56124C22.1676 8.52437 22.0865 8.50962 21.9906 8.51699C21.8947 8.52806 21.7877 8.57231 21.666 8.65344L21.5296 8.74933L21.4485 8.635L23.6427 7.10086L23.7239 7.21518L23.5874 7.31106C23.462 7.39588 23.3809 7.48808 23.3367 7.58028C23.3071 7.64666 23.2961 7.72411 23.3145 7.8163C23.3256 7.879 23.4067 8.01913 23.5505 8.22934L25.483 10.9842C25.6305 11.1981 25.7374 11.3234 25.8001 11.3603C25.8591 11.4009 25.9366 11.4119 26.0361 11.4046C26.1357 11.3972 26.2427 11.3529 26.3607 11.2718L26.4971 11.1759L26.5746 11.2902L24.3803 12.8244L24.3029 12.7101L24.4393 12.6142C24.5647 12.5294 24.6458 12.4335 24.6901 12.345C24.7196 12.2786 24.7306 12.1975 24.7122 12.1089C24.7011 12.0462 24.62 11.9061 24.4725 11.6959L23.5653 10.3978L22.0791 11.4414ZM28.6619 8.6645L27.0503 9.4832L27.0835 10.0253C27.0945 10.206 27.1277 10.3462 27.1757 10.4384C27.2421 10.5674 27.3416 10.6375 27.4781 10.6412C27.5555 10.6449 27.7178 10.5969 27.9649 10.4937L28.0276 10.6191L26.5082 11.3898L26.4455 11.2644C26.5967 11.1575 26.6963 11.021 26.7442 10.8588C26.7922 10.6928 26.8069 10.3978 26.7848 9.97L26.5635 5.50402L26.6262 5.47083L30.1813 8.36948C30.5206 8.64607 30.7603 8.80095 30.9078 8.8452C31.0221 8.87471 31.1475 8.85996 31.295 8.80095L31.3577 8.92634L29.1487 10.0474L29.086 9.92575L29.1782 9.88148C29.3552 9.78929 29.4658 9.70078 29.5138 9.61596C29.547 9.55695 29.5433 9.49057 29.5101 9.4205C29.488 9.37994 29.4621 9.34675 29.4253 9.30987C29.4105 9.29144 29.3331 9.22505 29.1966 9.11073L28.6619 8.6645ZM28.4222 8.47274L26.9433 7.25207L27.0429 9.17712L28.4222 8.47274ZM31.9957 6.19365L32.5046 7.52127C32.6005 7.77942 32.6816 7.93432 32.7406 7.98963C32.7996 8.04495 32.8734 8.07813 32.973 8.08551C33.0688 8.09289 33.2274 8.05601 33.4413 7.97488L33.4893 8.10396L31.059 9.03329L31.011 8.90421C31.2323 8.81939 31.3724 8.74195 31.4388 8.66819C31.5015 8.59813 31.5347 8.52436 31.5421 8.44323C31.5495 8.36947 31.5015 8.19984 31.402 7.94169L30.2108 4.84022C30.1112 4.58207 30.0338 4.42717 29.9748 4.37185C29.9158 4.31285 29.842 4.28335 29.7424 4.27598C29.6465 4.26491 29.4916 4.30179 29.2741 4.38661L29.2224 4.25753L31.3098 3.45728C31.9957 3.19175 32.5341 3.12906 32.9287 3.25813C33.3233 3.3872 33.5888 3.63797 33.729 4.00307C33.847 4.31285 33.8544 4.61526 33.7474 4.91029C33.6368 5.20531 33.4303 5.45608 33.1242 5.66629C32.914 5.81011 32.5378 5.98713 31.9957 6.19365ZM31.0959 3.85556L31.8924 5.91706C31.9699 5.89124 32.0326 5.87281 32.0731 5.85806C32.3608 5.74743 32.5489 5.57779 32.6374 5.34914C32.7296 5.11681 32.7038 4.82177 32.5673 4.46774C32.4309 4.11371 32.2538 3.88507 32.0326 3.78181C31.815 3.67486 31.5531 3.68592 31.2434 3.80024L31.0959 3.85556ZM36.6276 1.62073C37.4057 1.38102 38.1101 1.43634 38.7334 1.79406C39.3529 2.15178 39.766 2.69758 39.9651 3.43146C40.1311 4.05839 40.0979 4.65582 39.8582 5.23113C39.5373 5.99451 38.9362 6.49237 38.0474 6.73208C37.1587 6.97179 36.3879 6.85377 35.7388 6.38173C35.2262 6.00926 34.8833 5.49297 34.7062 4.84391C34.5071 4.10634 34.5956 3.43145 34.9644 2.80452C35.3369 2.18128 35.89 1.79037 36.6276 1.62073ZM36.7346 1.842C36.2809 1.9637 36.0007 2.28454 35.8864 2.80821C35.7942 3.23969 35.8421 3.80762 36.0339 4.51568C36.2588 5.35651 36.576 5.94288 36.9817 6.26741C37.2619 6.49237 37.5901 6.55506 37.9626 6.45549C38.2171 6.38911 38.4088 6.27109 38.5453 6.10514C38.7149 5.89494 38.8145 5.59991 38.844 5.22743C38.8698 4.85496 38.8108 4.39399 38.6633 3.84819C38.4863 3.19175 38.2945 2.71971 38.088 2.43206C37.8778 2.14072 37.6602 1.95264 37.4352 1.86782C37.2177 1.78669 36.9816 1.77562 36.7346 1.842ZM40.8723 0.743022L45.0764 0.230418L45.0949 0.370558C44.7814 0.418499 44.5897 0.48856 44.5159 0.580756C44.4385 0.67664 44.42 0.857348 44.4532 1.12656L44.8699 4.51568C44.8957 4.73327 44.9326 4.88078 44.9732 4.96191C45.0174 5.04304 45.0986 5.10574 45.2166 5.14262C45.3309 5.18319 45.4895 5.19055 45.6849 5.16843L45.8841 6.79109L45.7439 6.80583C45.6628 6.37066 45.4563 6.03507 45.1355 5.79536C44.8109 5.55566 44.3942 5.46714 43.8927 5.52615L42.506 5.6958C41.9824 5.75849 41.5804 5.93919 41.2927 6.23422C41.0088 6.52925 40.8686 6.92016 40.8797 7.39958L40.7432 7.41801L40.5404 5.79536C41.1452 5.59622 41.5361 5.12787 41.7131 4.38293C41.8938 3.64167 41.9086 2.67545 41.7611 1.48428C41.7279 1.19663 41.6541 1.01223 41.5435 0.938477C41.4329 0.861032 41.2153 0.842603 40.8871 0.879481L40.8723 0.743022ZM43.3063 0.779902L42.0266 0.938477L42.0819 1.37365C42.1557 1.98214 42.1852 2.57956 42.1778 3.17331C42.1667 3.76336 42.1114 4.23173 42.0082 4.57838C41.9086 4.92504 41.75 5.23113 41.5435 5.48559L43.3542 5.26431C43.6013 5.23481 43.7414 5.20162 43.782 5.16106C43.8226 5.12049 43.8336 5.00985 43.8078 4.82177L43.3063 0.779902ZM48.6942 0.00545396C49.5092 -0.0388001 50.1767 0.186157 50.6967 0.684015C51.213 1.17819 51.4785 1.80881 51.4933 2.56851C51.5007 3.22125 51.3236 3.78919 50.9549 4.29073C50.4607 4.95454 49.7563 5.29382 48.8343 5.30857C47.9161 5.32332 47.197 5.02461 46.6807 4.41243C46.2713 3.92563 46.0611 3.34664 46.05 2.66807C46.039 1.90838 46.2861 1.27038 46.7913 0.754085C47.3076 0.2341 47.9382 -0.0166731 48.6942 0.00545396ZM48.7458 0.245172C48.2775 0.256236 47.9235 0.495945 47.6874 0.98274C47.4957 1.37734 47.4035 1.94158 47.4182 2.67546C47.433 3.54947 47.5989 4.19116 47.9124 4.60051C48.13 4.88816 48.4324 5.0283 48.8196 5.02461C49.0778 5.02092 49.2953 4.95454 49.465 4.82546C49.6826 4.65951 49.8522 4.40136 49.9702 4.04364C50.0845 3.68961 50.1399 3.22494 50.1325 2.65701C50.1214 1.98214 50.0476 1.47691 49.9149 1.14131C49.7821 0.809409 49.6162 0.573386 49.417 0.436936C49.2216 0.304174 48.9966 0.237797 48.7458 0.245172ZM55.5536 2.88935C56.022 3.05899 56.3465 3.23969 56.5235 3.4204C56.7743 3.68223 56.8775 3.9957 56.8333 4.35711C56.789 4.73696 56.5936 5.03567 56.2543 5.24588C55.8412 5.50403 55.2733 5.58516 54.5542 5.49665L51.969 5.17949L51.9838 5.04304C52.2198 5.06886 52.3821 5.06886 52.4706 5.03198C52.5591 4.99879 52.6255 4.95085 52.6697 4.88447C52.714 4.82177 52.7508 4.64844 52.784 4.37554L53.1897 1.07862C53.2266 0.805716 53.2303 0.632394 53.2044 0.55495C53.1786 0.481193 53.1233 0.414804 53.0459 0.363175C52.9647 0.307857 52.8098 0.267292 52.5775 0.23779L52.5959 0.101341L55.0336 0.400055C55.6163 0.470124 56.022 0.57339 56.2506 0.706152C56.4829 0.838914 56.6526 1.01592 56.7669 1.24088C56.8812 1.46215 56.9255 1.6908 56.896 1.92313C56.8665 2.17022 56.7521 2.37674 56.553 2.54269C56.3502 2.7197 56.0183 2.83034 55.5536 2.88935ZM54.2038 2.62382C54.5579 2.66808 54.8234 2.65701 55.0004 2.598C55.1811 2.539 55.325 2.44311 55.4319 2.31035C55.5425 2.17759 55.6089 1.99689 55.6347 1.77193C55.6605 1.55066 55.6421 1.35889 55.572 1.204C55.4983 1.0528 55.3876 0.927418 55.2291 0.827846C55.0742 0.731962 54.8123 0.661898 54.4473 0.625019L54.2038 2.62382ZM54.1707 2.91516L53.9678 4.5415L53.942 4.72957C53.9273 4.86234 53.9494 4.96929 54.0047 5.04673C54.0637 5.12787 54.1633 5.17212 54.2997 5.18687C54.4989 5.21269 54.6907 5.19424 54.8677 5.12418C55.0484 5.05779 55.1922 4.94348 55.3028 4.7849C55.4135 4.62632 55.4835 4.44562 55.5057 4.2391C55.5352 4.00307 55.5057 3.7818 55.4208 3.58266C55.3323 3.37983 55.1996 3.22863 55.0115 3.12905C54.8345 3.02948 54.5505 2.95573 54.1707 2.91516ZM62.9625 2.02639C62.6932 1.9637 62.5089 1.96738 62.4093 2.03377C62.3134 2.10383 62.236 2.25135 62.1806 2.48368L61.3804 5.95026C61.3214 6.21578 61.3214 6.39648 61.3804 6.49236C61.4431 6.58824 61.6127 6.67307 61.893 6.74314L61.8635 6.87959L59.3447 6.29691L59.3742 6.16415C59.577 6.2084 59.7209 6.22315 59.813 6.2084C59.9016 6.19734 59.9753 6.15309 60.0306 6.08671C60.0823 6.02033 60.1339 5.88756 60.1781 5.6958L61.078 1.79037L59.8794 1.51378L59.5365 2.99999C59.3926 3.62323 59.2672 4.09527 59.1603 4.41243C59.0533 4.73327 58.8985 5.02091 58.692 5.28275C58.4854 5.54459 58.2568 5.7253 58.0023 5.82118C57.7479 5.91707 57.4897 5.9355 57.2242 5.87281C56.9845 5.81749 56.8148 5.71055 56.7079 5.55566C56.6046 5.39708 56.5751 5.22744 56.6157 5.03936C56.6526 4.88447 56.7227 4.77014 56.8259 4.68532C56.9292 4.60788 57.0582 4.58575 57.2094 4.61894C57.4934 4.68532 57.6077 4.89553 57.5561 5.25325C57.5303 5.41183 57.5745 5.50402 57.6852 5.52984C57.84 5.56303 58.0281 5.50033 58.2494 5.33069C58.4707 5.16474 58.6514 4.9029 58.7915 4.55624C58.9353 4.2059 59.0829 3.68593 59.2414 2.99999L59.459 2.05589C59.5217 1.79037 59.5475 1.60967 59.5365 1.5101C59.5217 1.41421 59.4738 1.33308 59.3853 1.27407C59.3004 1.21138 59.1382 1.14868 58.8948 1.08968L58.928 0.953231L62.9883 1.88995L62.9625 2.02639ZM65.2415 6.54769L63.5193 5.98713L63.1616 6.39648C63.0436 6.53293 62.9662 6.65095 62.933 6.75421C62.8887 6.89066 62.9108 7.00866 62.9993 7.10823C63.051 7.16724 63.2022 7.24837 63.4493 7.34794L63.4087 7.48071L61.786 6.95334L61.8303 6.82058C62.011 6.85009 62.1806 6.82795 62.3319 6.74682C62.4831 6.66569 62.7043 6.46287 62.9883 6.14571L65.9939 2.83034L66.0602 2.85247L66.5175 7.41064C66.5618 7.84212 66.6245 8.12608 66.6982 8.25884C66.7572 8.35841 66.8568 8.43954 67.0043 8.49855L66.9601 8.63131L64.5999 7.86424L64.6441 7.73517L64.74 7.76467C64.9281 7.82367 65.0719 7.84581 65.1641 7.8163C65.2268 7.79418 65.2747 7.74623 65.2969 7.67616C65.3079 7.63191 65.319 7.58397 65.319 7.53603C65.319 7.51021 65.3116 7.41064 65.2969 7.23362L65.2415 6.54769ZM65.2047 6.24159L65.024 4.33129L63.7295 5.76218L65.2047 6.24159ZM73.3659 6.16784L72.5582 7.74623L72.4255 7.67984C72.5398 7.21886 72.514 6.80952 72.3591 6.4518C72.2005 6.09777 71.9497 5.83224 71.6104 5.65892C71.3265 5.51509 71.0241 5.45977 70.7032 5.50402C70.3787 5.54828 70.0984 5.66998 69.855 5.88019C69.5416 6.14571 69.2761 6.48868 69.0658 6.90172C68.8556 7.30738 68.7192 7.70936 68.6528 8.09289C68.5864 8.4838 68.6159 8.8157 68.7487 9.09966C68.8814 9.38363 69.1212 9.61227 69.4715 9.78929C69.7591 9.93311 70.0579 10.0069 70.3566 10.0032C70.659 9.9995 71.0204 9.91099 71.4445 9.73767L71.2417 10.1286C70.8507 10.265 70.482 10.324 70.1464 10.3019C69.8071 10.2798 69.4568 10.1765 69.0843 9.98843C68.5975 9.73766 68.2176 9.4242 67.9373 9.03329C67.6608 8.64606 67.5096 8.21827 67.4911 7.74991C67.4727 7.27787 67.5686 6.83902 67.7788 6.42598C68 5.99082 68.3246 5.63679 68.7487 5.3602C69.1765 5.0873 69.6375 4.93979 70.1353 4.92135C70.6332 4.90291 71.0978 5.00616 71.533 5.22743C71.8575 5.3897 72.1562 5.6331 72.4476 5.95026C72.6135 6.13465 72.7205 6.2416 72.7795 6.2711C72.8495 6.30798 72.927 6.31535 73.0045 6.28584C73.0856 6.26003 73.163 6.19365 73.2368 6.08671L73.3659 6.16784ZM77.9683 9.20292L77.2344 10.3793L77.1201 10.3056C77.2196 9.99213 77.2676 9.74873 77.2602 9.57909C77.2528 9.40945 77.1938 9.2435 77.0943 9.08492C77.039 8.99273 76.9099 8.88577 76.7033 8.76407L76.3788 8.56124L74.2841 11.9061C74.1477 12.1274 74.0702 12.2749 74.0628 12.345C74.0518 12.4187 74.0702 12.4962 74.1145 12.581C74.1587 12.6658 74.2473 12.7469 74.369 12.8281L74.5165 12.9166L74.4427 13.0346L72.1673 11.6148L72.2411 11.5005L72.3849 11.589C72.514 11.6664 72.6283 11.707 72.7315 11.7107C72.8053 11.718 72.8791 11.6922 72.9602 11.6406C73.0155 11.6037 73.1114 11.4746 73.2478 11.2607L75.3389 7.91587L75.0254 7.71673C74.734 7.53602 74.4796 7.46227 74.2694 7.50284C73.978 7.56184 73.7015 7.73517 73.4544 8.02282L73.3363 7.94537L74.0702 6.77264L77.9683 9.20292ZM80.9296 12.6732C81.1066 12.4593 81.2025 12.2933 81.2173 12.179C81.2283 12.0647 81.1398 11.9209 80.9407 11.7549L80.8079 11.648L80.9001 11.5373L83.0059 13.3001L82.9137 13.4071L82.7809 13.2927C82.6002 13.1415 82.449 13.0788 82.3347 13.0936C82.2167 13.1157 82.0618 13.2411 81.8626 13.4771L79.6942 16.0549C79.495 16.2946 79.3918 16.4753 79.3955 16.5934C79.3992 16.7114 79.4877 16.8441 79.6647 16.999L79.8011 17.1096L79.7126 17.2166L77.6068 15.4538L77.6954 15.3506L77.8282 15.4575C78.0089 15.6124 78.1637 15.6751 78.2781 15.653C78.3961 15.6271 78.551 15.5018 78.7501 15.2657L80.5387 13.1415L77.3303 14.1483C77.1754 14.3364 77.0832 14.4876 77.0611 14.6093C77.0352 14.7273 77.1274 14.8785 77.334 15.0482L77.4704 15.1588L77.3819 15.2694L75.2762 13.5066L75.3647 13.3997L75.4974 13.5103C75.6781 13.6615 75.833 13.7279 75.951 13.7058C76.069 13.68 76.2239 13.5546 76.4231 13.3186L78.5878 10.7408C78.787 10.5047 78.8902 10.3351 78.9013 10.2245C78.9123 10.1175 78.8165 9.97737 78.61 9.80404L78.4809 9.69341L78.5694 9.58646L80.6752 11.3492L80.5866 11.4562L80.4502 11.3419C80.2695 11.1944 80.122 11.1317 80.0003 11.1575C79.8749 11.1833 79.72 11.305 79.5356 11.5299L77.7286 13.6763L80.9296 12.6732ZM84.5843 15.3837L83.087 16.8294L83.1571 16.9031C83.382 17.1392 83.6181 17.235 83.8688 17.2018C84.1159 17.1613 84.3962 17.0211 84.7133 16.7741L84.8092 16.8773L82.8805 18.736L82.7809 18.6364C82.969 18.4078 83.0981 18.1976 83.1644 18.0021C83.2308 17.803 83.2456 17.6333 83.2013 17.4969C83.1571 17.3604 83.0501 17.2055 82.8805 17.0285L81.8405 18.0279C81.6377 18.2234 81.5197 18.3488 81.4938 18.4151C81.4643 18.4742 81.457 18.5442 81.4754 18.6143C81.4902 18.6917 81.5529 18.7802 81.6524 18.8835L81.8663 19.1011C82.1982 19.444 82.5449 19.6469 82.9063 19.6985C83.264 19.7538 83.6512 19.669 84.0679 19.4441L84.1638 19.5436L82.8325 20.5098L79.7569 17.3309L79.8565 17.235L79.9745 17.3567C80.0777 17.4637 80.181 17.5301 80.2805 17.5559C80.3506 17.5817 80.4317 17.5743 80.5166 17.5411C80.5756 17.519 80.701 17.4194 80.889 17.2387L83.312 14.9043C83.4779 14.7421 83.5775 14.6388 83.6033 14.5945C83.6512 14.5134 83.666 14.4323 83.6549 14.3512C83.6402 14.2331 83.5738 14.1188 83.4558 13.9971L83.3378 13.8754L83.441 13.7795L86.4208 16.8589L85.3292 17.9099L85.2296 17.8067C85.4472 17.5006 85.5652 17.2424 85.5873 17.0359C85.6132 16.8294 85.5652 16.6118 85.4546 16.3868C85.3919 16.2541 85.2223 16.0476 84.953 15.771L84.5843 15.3837ZM94.2501 28.66L92.6827 29.4897L92.6127 29.3606C92.9704 29.0435 93.1843 28.6968 93.2617 28.3133C93.3355 27.9298 93.2875 27.5721 93.1068 27.2328C92.9593 26.9488 92.7381 26.7349 92.4541 26.5837C92.1628 26.4362 91.8604 26.3772 91.5395 26.4067C91.1265 26.4473 90.7171 26.5726 90.3078 26.7902C89.9058 27.0078 89.5628 27.2512 89.2826 27.5315C89.006 27.8118 88.8363 28.1031 88.7847 28.4092C88.7257 28.7153 88.7958 29.0435 88.9802 29.3902C89.1314 29.6741 89.3305 29.9028 89.585 30.0724C89.8358 30.242 90.1787 30.3785 90.6249 30.4818L90.2304 30.6883C89.8321 30.5739 89.5001 30.4117 89.2346 30.2015C88.9691 29.9876 88.7404 29.7036 88.5413 29.3348C88.2868 28.8554 88.1541 28.3723 88.1467 27.8966C88.1393 27.4172 88.2647 26.9857 88.5192 26.5874C88.7773 26.1928 89.1055 25.8867 89.5149 25.6691C89.9464 25.4368 90.4147 25.3335 90.9237 25.3557C91.4289 25.3741 91.8936 25.5216 92.3103 25.7871C92.727 26.0563 93.0515 26.4067 93.2802 26.8382C93.4498 27.1553 93.5604 27.5241 93.6121 27.9556C93.6379 28.2027 93.6711 28.3539 93.6969 28.4092C93.7338 28.4793 93.7928 28.5272 93.8739 28.553C93.9551 28.5788 94.0546 28.5678 94.1763 28.5235L94.2501 28.66ZM95.4671 31.7909C95.8027 32.5359 95.8285 33.2366 95.5519 33.9004C95.2716 34.5642 94.7811 35.0362 94.0767 35.3202C93.4719 35.5636 92.8745 35.6005 92.2734 35.4345C91.4805 35.2132 90.9052 34.6785 90.5622 33.8266C90.2193 32.9747 90.2377 32.1966 90.6323 31.4959C90.9384 30.9427 91.4104 30.5371 92.0374 30.2863C92.7417 30.0023 93.4314 30.0023 94.0915 30.2974C94.7553 30.5813 95.2163 31.0792 95.4671 31.7909ZM95.2642 31.9237C95.0872 31.4885 94.7295 31.2488 94.1948 31.2009C93.7596 31.164 93.1954 31.282 92.5168 31.5586C91.7018 31.8831 91.1597 32.2667 90.8904 32.7092C90.6987 33.0153 90.6766 33.3472 90.8204 33.7086C90.9163 33.9483 91.0564 34.1253 91.2371 34.2397C91.4732 34.3835 91.7755 34.4462 92.1517 34.4277C92.5242 34.4093 92.9778 34.295 93.5052 34.0811C94.1321 33.8303 94.582 33.5795 94.8438 33.3398C95.1057 33.0964 95.2679 32.8604 95.3232 32.6244C95.3749 32.3921 95.3564 32.1597 95.2642 31.9237ZM91.7128 36.9097L91.8456 36.8765L91.8788 37.0092C91.9415 37.26 92.03 37.4001 92.1406 37.4407C92.255 37.4813 92.4541 37.4665 92.7418 37.3928L96.0092 36.5814C96.3042 36.504 96.4886 36.4229 96.5587 36.3307C96.6324 36.2348 96.6398 36.0799 96.5845 35.8623L96.5439 35.7074L96.6804 35.6742L97.3258 38.2705L97.1893 38.3037L97.1672 38.2041C97.1082 37.9681 97.027 37.8132 96.9311 37.7505C96.8316 37.6878 96.6214 37.6952 96.3042 37.7763L92.9962 38.6024C92.7492 38.6614 92.6127 38.7167 92.5795 38.7646C92.5463 38.8089 92.5611 38.9601 92.6238 39.2109L92.8082 39.9447C92.8745 40.2176 92.9335 40.3688 92.9815 40.402C93.0257 40.4352 93.1733 40.4205 93.4167 40.3578L96.743 39.5317C97.0381 39.458 97.2262 39.3768 97.2925 39.2846C97.3663 39.1924 97.3737 39.0412 97.3221 38.82L97.2778 38.6614L97.4143 38.6282L98.0449 41.1544L97.9084 41.1875L97.8826 41.088C97.8347 40.8888 97.7609 40.7561 97.665 40.6971C97.5654 40.6381 97.3552 40.6491 97.0418 40.7303L93.7707 41.5416C93.4646 41.6153 93.2802 41.7038 93.2101 41.796C93.14 41.8882 93.1364 42.0431 93.1843 42.257L93.2101 42.3529L91.6243 42.7475L91.5911 42.6147C92.5094 42.187 92.8598 41.5195 92.6311 40.6122L91.7128 36.9097Z" fill="#DF1F2B"/>
<path fill-rule="evenodd" clip-rule="evenodd" d="M97.6465 46.0776C97.9231 46.0518 98.1075 46.0039 98.196 45.9301C98.2882 45.8564 98.3214 45.6941 98.2993 45.436L98.2845 45.27L98.4246 45.2589L98.6607 47.9916L98.5205 48.0027L98.5058 47.8257C98.4873 47.5897 98.4283 47.4348 98.3325 47.3684C98.2329 47.2983 98.03 47.2762 97.7276 47.3057L94.368 47.6007C94.0546 47.6265 93.8591 47.6819 93.7743 47.7667C93.6932 47.8552 93.66 48.0138 93.6821 48.2461L93.6968 48.4268L93.5567 48.4378L93.3207 45.7015L93.4571 45.6904L93.4719 45.86C93.494 46.0961 93.553 46.251 93.6563 46.3173C93.7558 46.38 93.9587 46.4022 94.2611 46.3764L97.0343 46.1329L94.0509 44.5841C93.8075 44.6062 93.6378 44.6504 93.5346 44.7205C93.4313 44.7906 93.3908 44.9565 93.4166 45.2221L93.4313 45.3991L93.2912 45.4101L93.0551 42.6775L93.1916 42.6664L93.2063 42.8323C93.2285 43.0684 93.2875 43.2232 93.3907 43.2933C93.4903 43.3597 93.6931 43.3818 93.9956 43.3523L97.3552 43.0573C97.6576 43.0315 97.853 42.9835 97.9415 42.9135C98.0263 42.8471 98.0558 42.6775 98.0374 42.4119L98.0227 42.2423L98.1628 42.2312L98.3988 44.9639L98.2587 44.975L98.2439 44.798C98.2255 44.5656 98.1628 44.4181 98.0559 44.3517C97.9489 44.2817 97.7535 44.2595 97.4658 44.2853L94.6704 44.5287L97.6465 46.0776ZM94.8843 51.2001L94.9138 49.393L94.4197 49.1717C94.2537 49.0943 94.1173 49.0574 94.0103 49.0574C93.8665 49.0574 93.7595 49.1127 93.6895 49.227C93.6489 49.2934 93.6157 49.4594 93.5899 49.7249L93.4534 49.7212L93.4792 48.0211L93.6194 48.0248C93.6452 48.2092 93.7153 48.3641 93.8406 48.4821C93.9623 48.6001 94.2168 48.7513 94.6041 48.932L98.6607 50.8349L98.657 50.9087L94.4234 52.6789C94.0214 52.8448 93.7669 52.985 93.6636 53.0993C93.5862 53.1841 93.5346 53.3021 93.5198 53.4607L93.3797 53.457L93.4239 50.9825L93.5641 50.9862V51.0894C93.5567 51.2885 93.5862 51.4287 93.6415 51.5061C93.6784 51.5651 93.7374 51.5946 93.8112 51.5946C93.8554 51.5946 93.9034 51.5873 93.9513 51.5725C93.9771 51.5688 94.0693 51.5319 94.239 51.4656L94.8843 51.2001ZM95.1683 51.0783L96.9421 50.3482L95.1941 49.5331L95.1683 51.0783ZM97.6096 59.1658C97.6428 58.8929 97.6207 58.7048 97.5469 58.62C97.4658 58.5278 97.3109 58.4688 97.0712 58.4393L93.5346 58.0041C93.2654 57.9709 93.0884 57.9894 92.9962 58.0594C92.9077 58.1295 92.8413 58.3102 92.8007 58.5942L92.6606 58.5794L92.9777 56.02L93.1142 56.0348C93.0883 56.2413 93.0883 56.3888 93.1142 56.4737C93.1363 56.5585 93.1842 56.6285 93.258 56.6728C93.3317 56.717 93.4645 56.7539 93.6636 56.7797L97.6502 57.2702L97.7977 56.0495L96.2783 55.8652C95.644 55.7877 95.1646 55.714 94.8327 55.6402C94.5045 55.5701 94.1984 55.4447 93.9181 55.264C93.6342 55.087 93.435 54.8768 93.3096 54.6371C93.1879 54.3974 93.1437 54.1393 93.1769 53.8737C93.2064 53.6266 93.2949 53.4459 93.4424 53.3279C93.5899 53.2099 93.7521 53.162 93.9439 53.1841C94.1025 53.2025 94.2279 53.2615 94.3164 53.3537C94.4086 53.4496 94.4455 53.5713 94.427 53.7299C94.3902 54.0176 94.191 54.154 93.8296 54.1392C93.6674 54.1319 93.5825 54.1835 93.5677 54.2978C93.5493 54.4564 93.6342 54.6371 93.8222 54.8363C94.0103 55.0391 94.2869 55.194 94.652 55.2935C95.0134 55.3968 95.5481 55.4927 96.2525 55.5812L97.2113 55.6955C97.4842 55.7287 97.6686 55.7361 97.7608 55.714C97.8567 55.6881 97.9304 55.6328 97.9821 55.5406C98.0374 55.4521 98.078 55.2825 98.1149 55.0354L98.255 55.0538L97.7461 59.1842L97.6096 59.1658ZM95.5629 63.5801C95.8321 63.6502 96.0202 63.6649 96.1271 63.628C96.2415 63.5912 96.3263 63.4474 96.3926 63.204L96.4369 63.038L96.5697 63.0749L95.8616 65.7227L95.7251 65.6859L95.7694 65.5126C95.8321 65.2839 95.8284 65.1216 95.762 65.0258C95.6957 64.9299 95.5112 64.8377 95.2162 64.7602L91.9599 63.8899C91.6538 63.8088 91.451 63.794 91.3403 63.8493C91.2334 63.901 91.1522 64.0411 91.0895 64.2661L91.0453 64.4357L90.9125 64.3988L91.6206 61.751L91.7534 61.7878L91.7091 61.9538C91.6464 62.1861 91.6501 62.3484 91.7238 62.4443C91.7976 62.5402 91.9783 62.6286 92.2733 62.7061L94.9581 63.4289L92.6863 60.9544C92.4503 60.8917 92.2733 60.8733 92.1553 60.9028C92.0373 60.9359 91.9414 61.0798 91.8714 61.3379L91.8271 61.5075L91.6943 61.4707L92.4061 58.8228L92.5389 58.8597L92.4946 59.0256C92.4319 59.2543 92.4393 59.4166 92.5093 59.5161C92.5831 59.612 92.7638 59.7005 93.0588 59.7816L96.3152 60.652C96.6102 60.7331 96.8131 60.7516 96.9163 60.7184C97.0159 60.6815 97.1044 60.5377 97.1745 60.2758L97.2187 60.1099L97.3552 60.1467L96.6434 62.7946L96.5106 62.7577L96.5549 62.5881C96.6139 62.3631 96.6065 62.2009 96.5291 62.1013C96.4516 62.0017 96.2783 61.9132 95.9944 61.8358L93.2838 61.1129L95.5629 63.5801ZM94.0693 65.9514L95.5407 66.5156L95.4891 66.6447C95.3121 66.6041 95.2015 66.6373 95.1646 66.7406C95.1462 66.7885 95.1388 66.8807 95.1388 67.0135C95.1425 67.3712 95.0872 67.6957 94.9765 67.976C94.7884 68.4665 94.5229 68.7984 94.1763 68.9717C93.8333 69.1451 93.5014 69.1709 93.1879 69.0492C93.0404 68.9902 92.9002 68.9017 92.7785 68.7763C92.6532 68.6509 92.5573 68.4886 92.4946 68.2821C92.4356 68.0756 92.4208 67.7806 92.4651 67.397C92.1885 67.8728 91.8824 68.1678 91.5616 68.2821C91.2371 68.3964 90.9383 68.3964 90.658 68.2932C90.4183 68.1973 90.2155 68.0424 90.0569 67.8174C89.8983 67.5962 89.8172 67.3269 89.8062 67.0135C89.7951 66.7 89.8689 66.3386 90.0274 65.9293C90.1786 65.5347 90.352 65.2397 90.5511 65.0516C90.7503 64.8635 91.0047 64.7234 91.3219 64.6348L91.4141 64.8377C90.9346 65.0294 90.6286 65.3023 90.4921 65.6637C90.3778 65.9588 90.3852 66.228 90.5106 66.4714C90.6359 66.7185 90.8535 66.8955 91.1633 67.0172C91.3993 67.1094 91.6243 67.1315 91.8382 67.0909C92.0521 67.0467 92.218 66.9619 92.3323 66.8291C92.4467 66.7 92.5647 66.4861 92.6863 66.1837L92.9962 66.3054C92.963 66.3866 92.9371 66.453 92.915 66.5046C92.7896 66.8365 92.7896 67.102 92.9224 67.3122C93.0551 67.5187 93.2912 67.6884 93.6415 67.8248C93.9771 67.9539 94.2426 67.976 94.4418 67.8875C94.6372 67.8027 94.7774 67.6626 94.8511 67.4708C94.9507 67.209 94.9323 66.9619 94.7884 66.7148C94.6446 66.4751 94.3901 66.2722 94.0213 66.1063L94.0693 65.9514ZM88.8842 72.4236L91.1633 75.2742L90.1528 77.096L90.0311 77.0297L90.1122 76.8858C90.186 76.7531 90.2229 76.6351 90.2192 76.5318C90.2192 76.4581 90.1934 76.3843 90.1381 76.3142C90.0975 76.2626 89.9684 76.1704 89.7435 76.0487L86.7895 74.415C86.5609 74.2859 86.4134 74.2195 86.3433 74.2121C86.2695 74.2085 86.1921 74.2269 86.1073 74.2785C86.0224 74.3302 85.945 74.415 85.8749 74.5441L85.7975 74.6916L85.6721 74.6215L86.9702 72.2871L87.0956 72.3535L87.0145 72.4973C86.9407 72.6301 86.9038 72.7481 86.9075 72.8513C86.9075 72.9214 86.937 72.9989 86.9923 73.0726C87.0329 73.1279 87.162 73.2164 87.3869 73.3381L90.7097 75.1747L87.5713 71.1992L87.6156 71.118L92.6421 71.6233L89.4853 69.8789C89.2641 69.7572 89.1276 69.6872 89.0686 69.6687C88.9432 69.6392 88.8178 69.6503 88.6961 69.7093C88.5707 69.7646 88.4527 69.8937 88.3384 70.1002L88.2167 70.0338L89.0649 68.4997L89.1866 68.5661L89.1608 68.6103C89.1018 68.7099 89.0686 68.8095 89.0538 68.9164C89.0428 69.0234 89.0502 69.1119 89.0834 69.1856C89.1129 69.2631 89.1792 69.3405 89.2641 69.4216C89.2899 69.4401 89.3968 69.5028 89.5996 69.6134L92.4356 71.1844C92.6606 71.3135 92.8081 71.3762 92.8818 71.3836C92.9519 71.3873 93.0293 71.3651 93.1142 71.3172C93.199 71.2656 93.2764 71.1771 93.3465 71.0517L93.4239 70.9079L93.5493 70.9742L92.5352 72.8034L88.8842 72.4236Z" fill="#DF1F2B"/>
<path fill-rule="evenodd" clip-rule="evenodd" d="M17.1965 14.9228C17.8123 14.9228 18.3065 15.4169 18.3065 16.0291C18.3065 16.645 17.8086 17.1392 17.1965 17.1392C16.5843 17.1392 16.0864 16.645 16.0864 16.0291C16.0864 15.4169 16.5843 14.9228 17.1965 14.9228Z" fill="#DF1F2B"/>
<path fill-rule="evenodd" clip-rule="evenodd" d="M3.23431 40.0591C3.84649 40.0591 4.34435 40.5569 4.34435 41.1691C4.34435 41.7813 3.84649 42.2755 3.23431 42.2755C2.62213 42.2755 2.12427 41.7813 2.12427 41.1691C2.12427 40.5569 2.62213 40.0591 3.23431 40.0591Z" fill="#DF1F2B"/>
<path fill-rule="evenodd" clip-rule="evenodd" d="M13.7446 78.8551C14.3567 78.8551 14.8546 79.353 14.8546 79.9615C14.8546 80.57 14.3567 81.0678 13.7446 81.0678C13.1324 81.0678 12.6345 80.5737 12.6345 79.9615C12.6345 79.3493 13.1324 78.8551 13.7446 78.8551Z" fill="#DF1F2B"/>
<path fill-rule="evenodd" clip-rule="evenodd" d="M86.2219 77.675C86.834 77.675 87.3319 78.1692 87.3319 78.7814C87.3319 79.3936 86.834 79.8877 86.2219 79.8877C85.606 79.8877 85.1118 79.3936 85.1118 78.7814C85.1118 78.1729 85.6097 77.675 86.2219 77.675Z" fill="#DF1F2B"/>
<path fill-rule="evenodd" clip-rule="evenodd" d="M87.5346 21.1294C88.1505 21.1294 88.6483 21.6236 88.6483 22.2357C88.6483 22.8516 88.1505 23.3458 87.5346 23.3458C86.9224 23.3458 86.4246 22.8479 86.4246 22.2357C86.4246 21.6273 86.9224 21.1294 87.5346 21.1294Z" fill="#DF1F2B"/>
<path fill-rule="evenodd" clip-rule="evenodd" d="M58.8763 14.908C69.6153 27.9851 77.9793 45.7457 71.1126 59.8333C70.611 60.8659 69.9656 61.8173 69.2133 62.6876L37.5495 31.0755L46.6253 21.3876L46.511 21.2843H35.8937L31.9514 25.4921L31.0036 24.5443L28.5549 27.1258L29.499 28.1142L22.9383 35.1137L28.7135 40.5053L34.9644 33.834L65.4849 65.7781C61.1296 68.389 55.2843 69.2299 49.7083 67.6072C44.125 65.9809 38.785 61.0613 35.9011 57.5284L33.3196 60.1062L32.1137 59.0035L30.2698 60.4749C31.0479 63.0859 24.797 66.0104 22.5732 68.1899C19.9549 70.7529 23.0674 76.1298 27.1314 71.3282C29.381 68.673 30.7787 64.2181 33.574 64.2402L35.0307 62.7651C40.6215 68.0793 46.8281 73.1906 54.5283 73.6811C60.6428 74.072 65.5992 72.4162 69.3535 69.8236L73.4248 74.0868C75.3056 75.6578 78.7169 72.8734 76.825 70.2883L73.0855 66.5525C75.7224 63.6428 77.3008 60.2906 77.7765 57.3919C80.5497 40.4574 68.2066 24.0244 58.8763 14.908Z" fill="#DF1F2B"/>
<path d="M49.6052 27.5794V76.5244V27.5794Z" stroke="#DF1F2B" stroke-width="3.5226" stroke-miterlimit="22.9256"/>
</svg>
